<mxfile host="app.diagrams.net" modified="2024-05-22T17:03:52.836Z" agent="Mozilla/5.0 (Windows NT 10.0; Win64; x64) AppleWebKit/537.36 (KHTML, like Gecko) Chrome/124.0.0.0 Safari/537.36" etag="99RYCKyLnSvrBaNpUn-M" version="24.4.6" type="device">
  <diagram name="Page-1" id="RPYhb6V7pzEQKH627ZkS">
    <mxGraphModel dx="2100" dy="1138" grid="1" gridSize="10" guides="1" tooltips="1" connect="1" arrows="1" fold="1" page="1" pageScale="1" pageWidth="850" pageHeight="1100" math="0" shadow="0">
      <root>
        <mxCell id="0" />
        <mxCell id="1" parent="0" />
        <mxCell id="3kv_n7mYtZN25fNvnHeq-1" value="network" style="rounded=1;whiteSpace=wrap;html=1;" parent="1" vertex="1">
          <mxGeometry x="360" y="270" width="120" height="60" as="geometry" />
        </mxCell>
        <mxCell id="3kv_n7mYtZN25fNvnHeq-2" value="name" style="ellipse;whiteSpace=wrap;html=1;" parent="1" vertex="1">
          <mxGeometry x="200" y="220" width="90" height="60" as="geometry" />
        </mxCell>
        <mxCell id="3kv_n7mYtZN25fNvnHeq-3" value="&lt;u&gt;network_id&lt;/u&gt;" style="ellipse;whiteSpace=wrap;html=1;" parent="1" vertex="1">
          <mxGeometry x="200" y="290" width="95" height="60" as="geometry" />
        </mxCell>
        <mxCell id="3kv_n7mYtZN25fNvnHeq-4" value="" style="endArrow=none;html=1;rounded=0;exitX=1;exitY=0.5;exitDx=0;exitDy=0;" parent="1" source="3kv_n7mYtZN25fNvnHeq-3" edge="1">
          <mxGeometry width="50" height="50" relative="1" as="geometry">
            <mxPoint x="400" y="320" as="sourcePoint" />
            <mxPoint x="360" y="300" as="targetPoint" />
          </mxGeometry>
        </mxCell>
        <mxCell id="3kv_n7mYtZN25fNvnHeq-6" value="" style="endArrow=none;html=1;rounded=0;exitX=1;exitY=0.5;exitDx=0;exitDy=0;entryX=0;entryY=0.5;entryDx=0;entryDy=0;" parent="1" source="3kv_n7mYtZN25fNvnHeq-2" target="3kv_n7mYtZN25fNvnHeq-1" edge="1">
          <mxGeometry width="50" height="50" relative="1" as="geometry">
            <mxPoint x="400" y="320" as="sourcePoint" />
            <mxPoint x="450" y="270" as="targetPoint" />
          </mxGeometry>
        </mxCell>
        <mxCell id="3kv_n7mYtZN25fNvnHeq-8" value="" style="endArrow=none;html=1;rounded=0;exitX=1;exitY=0.5;exitDx=0;exitDy=0;entryX=0;entryY=0.5;entryDx=0;entryDy=0;" parent="1" source="5EQXQ2B8m0dF2Xu7otge-4" target="3kv_n7mYtZN25fNvnHeq-1" edge="1">
          <mxGeometry width="50" height="50" relative="1" as="geometry">
            <mxPoint x="300" y="390" as="sourcePoint" />
            <mxPoint x="450" y="270" as="targetPoint" />
          </mxGeometry>
        </mxCell>
        <mxCell id="5EQXQ2B8m0dF2Xu7otge-2" value="time" style="ellipse;whiteSpace=wrap;html=1;" vertex="1" parent="1">
          <mxGeometry x="200" y="150" width="90" height="60" as="geometry" />
        </mxCell>
        <mxCell id="5EQXQ2B8m0dF2Xu7otge-3" value="wage" style="ellipse;whiteSpace=wrap;html=1;" vertex="1" parent="1">
          <mxGeometry x="200" y="80" width="90" height="60" as="geometry" />
        </mxCell>
        <mxCell id="5EQXQ2B8m0dF2Xu7otge-4" value="&lt;span style=&quot;border-bottom: 1px dotted&quot;&gt;Crypto_id&lt;/span&gt;" style="ellipse;whiteSpace=wrap;html=1;align=center;" vertex="1" parent="1">
          <mxGeometry x="200" y="360" width="90" height="50" as="geometry" />
        </mxCell>
        <mxCell id="5EQXQ2B8m0dF2Xu7otge-5" value="" style="endArrow=none;html=1;rounded=0;exitX=1;exitY=0.5;exitDx=0;exitDy=0;" edge="1" parent="1" source="5EQXQ2B8m0dF2Xu7otge-2">
          <mxGeometry width="50" height="50" relative="1" as="geometry">
            <mxPoint x="300" y="260" as="sourcePoint" />
            <mxPoint x="360" y="300" as="targetPoint" />
          </mxGeometry>
        </mxCell>
        <mxCell id="5EQXQ2B8m0dF2Xu7otge-6" value="" style="endArrow=none;html=1;rounded=0;exitX=1;exitY=0.5;exitDx=0;exitDy=0;" edge="1" parent="1" source="5EQXQ2B8m0dF2Xu7otge-3">
          <mxGeometry width="50" height="50" relative="1" as="geometry">
            <mxPoint x="303" y="190" as="sourcePoint" />
            <mxPoint x="360" y="300" as="targetPoint" />
          </mxGeometry>
        </mxCell>
      </root>
    </mxGraphModel>
  </diagram>
</mxfile>
